<svg width="24" height="24" viewBox="0 0 24 24" fill="none" xmlns="http://www.w3.org/2000/svg">
<g id="material-symbols:attach-email-sharp">
<path id="Vector" d="M19 22C17.9 22 16.9583 21.6083 16.175 20.825C15.3917 20.0417 15 19.1 15 18V13.5C15 12.8 15.2417 12.2083 15.725 11.725C16.2083 11.2417 16.8 11 17.5 11C18.2 11 18.7917 11.2417 19.275 11.725C19.7583 12.2083 20 12.8 20 13.5V18H18V13.5C18 13.3667 17.95 13.25 17.85 13.15C17.75 13.05 17.6333 13 17.5 13C17.3667 13 17.25 13.05 17.15 13.15C17.05 13.25 17 13.3667 17 13.5V18C17 18.55 17.1957 19.021 17.587 19.413C17.979 19.8043 18.45 20 19 20C19.55 20 20.021 19.8043 20.413 19.413C20.8043 19.021 21 18.55 21 18V14H23V18C23 19.1 22.6083 20.0417 21.825 20.825C21.0417 21.6083 20.1 22 19 22ZM11 11L19 6V4L11 9L3 4V6L11 11ZM1 18V2H21V10H17.5C16.5333 10 15.7083 10.3417 15.025 11.025C14.3417 11.7083 14 12.5333 14 13.5V18H1Z" fill="#220000"/>
</g>
</svg>
