<svg width="24" height="24" viewBox="0 0 24 24" fill="none" xmlns="http://www.w3.org/2000/svg">
<g id="material-symbols:perm-phone-msg-rounded">
<path id="Vector" d="M12.85 12.1002C12.6833 12.2669 12.5 12.3085 12.3 12.2252C12.1 12.1419 12 11.9835 12 11.7502V3.9502C12 3.66687 12.096 3.4292 12.288 3.2372C12.48 3.0452 12.7173 2.94953 13 2.9502H20C20.2833 2.9502 20.521 3.0462 20.713 3.2382C20.905 3.4302 21.0007 3.66753 21 3.9502V8.9502C21 9.23353 20.904 9.4712 20.712 9.6632C20.52 9.8552 20.2827 9.95087 20 9.9502H15L12.85 12.1002ZM19.95 21.0002C17.8 21.0002 15.7043 20.5209 13.663 19.5622C11.6217 18.6035 9.81333 17.3369 8.238 15.7622C6.66267 14.1875 5.396 12.3792 4.438 10.3372C3.48 8.2952 3.00067 6.19953 3 4.0502C3 3.7502 3.1 3.5002 3.3 3.3002C3.5 3.1002 3.75 3.0002 4.05 3.0002H8.1C8.33333 3.0002 8.54167 3.0752 8.725 3.2252C8.90833 3.3752 9.01667 3.56687 9.05 3.8002L9.7 7.3002C9.73333 7.53353 9.729 7.7462 9.687 7.9382C9.645 8.1302 9.54933 8.30087 9.4 8.4502L7 10.9002C7.7 12.1002 8.575 13.2252 9.625 14.2752C10.675 15.3252 11.8333 16.2335 13.1 17.0002L15.45 14.6502C15.6 14.5002 15.796 14.3879 16.038 14.3132C16.28 14.2385 16.5173 14.2175 16.75 14.2502L20.2 14.9502C20.4333 15.0002 20.625 15.1129 20.775 15.2882C20.925 15.4635 21 15.6675 21 15.9002V19.9502C21 20.2502 20.9 20.5002 20.7 20.7002C20.5 20.9002 20.25 21.0002 19.95 21.0002Z" fill="#220000"/>
</g>
</svg>
