<svg width="24" height="24" viewBox="0 0 24 24" fill="none" xmlns="http://www.w3.org/2000/svg">
<g id="fluent:paint-brush-24-filled">
<path id="Vector" d="M12.5 2V5.252C12.5 5.45091 12.579 5.64168 12.7197 5.78233C12.8603 5.92298 13.0511 6.002 13.25 6.002C13.4489 6.002 13.6397 5.92298 13.7803 5.78233C13.921 5.64168 14 5.45091 14 5.252V2H15V6.251C15 6.44991 15.079 6.64068 15.2197 6.78133C15.3603 6.92198 15.5511 7.001 15.75 7.001C15.9489 7.001 16.1397 6.92198 16.2803 6.78133C16.421 6.64068 16.5 6.44991 16.5 6.251V2H18.25C18.4489 2 18.6397 2.07902 18.7803 2.21967C18.921 2.36032 19 2.55109 19 2.75V11H5V2.75C5 2.55109 5.07902 2.36032 5.21967 2.21967C5.36032 2.07902 5.55109 2 5.75 2H12.5ZM5 12.5V14.252C5 14.8487 5.23705 15.421 5.65901 15.843C6.08097 16.2649 6.65326 16.502 7.25 16.502H10V20C10 20.5304 10.2107 21.0391 10.5858 21.4142C10.9609 21.7893 11.4696 22 12 22C12.5304 22 13.0391 21.7893 13.4142 21.4142C13.7893 21.0391 14 20.5304 14 20V16.502H16.75C17.0455 16.502 17.3381 16.4438 17.611 16.3307C17.884 16.2177 18.1321 16.0519 18.341 15.843C18.5499 15.6341 18.7157 15.386 18.8287 15.113C18.9418 14.8401 19 14.5475 19 14.252V12.5H5Z" fill="#220000"/>
</g>
</svg>
